<?xml version="1.0" encoding="UTF-8"?>
<!DOCTYPE svg PUBLIC "-//W3C//DTD SVG 1.1//EN" "http://www.w3.org/Graphics/SVG/1.1/DTD/svg11.dtd">
<svg xmlns="http://www.w3.org/2000/svg" version="1.1" width="1597px" height="423px" style="shape-rendering:geometricPrecision; text-rendering:geometricPrecision; image-rendering:optimizeQuality; fill-rule:evenodd; clip-rule:evenodd" xmlns:xlink="http://www.w3.org/1999/xlink">
<g><path style="opacity:0.995" fill="#fca506" d="M 375.5,279.5 C 374.883,279.389 374.383,279.056 374,278.5C 373.667,218.5 373.333,158.5 373,98.5C 372.5,159.499 372.333,220.499 372.5,281.5C 371.667,220.335 371.167,159.001 371,97.5C 369.035,92.259 365.202,89.5924 359.5,89.5C 342.005,93.7073 324.672,98.5407 307.5,104C 306.213,105.41 305.046,106.91 304,108.5C 303.333,151.167 303.333,193.833 304,236.5C 310.414,232.043 316.914,227.709 323.5,223.5C 324.333,189.172 324.833,154.838 325,120.5C 333.349,117.662 341.849,115.329 350.5,113.5C 350.667,150.835 350.5,188.168 350,225.5C 329.076,236.378 309.576,249.378 291.5,264.5C 289.508,264.328 287.842,264.995 286.5,266.5C 285.667,204.836 285.167,143.169 285,81.5C 285.164,144.175 284.331,206.508 282.5,268.5C 282.333,206.832 282.5,145.166 283,83.5C 285.977,67.8577 295.143,58.0243 310.5,54C 348.5,53.3333 386.5,53.3333 424.5,54C 462.043,59.6692 487.543,80.1692 501,115.5C 508.415,140.225 506.581,164.225 495.5,187.5C 491.675,188.265 487.842,188.932 484,189.5C 483.228,189.355 482.561,189.022 482,188.5C 481.667,165.5 481.333,142.5 481,119.5C 480.716,115.88 478.883,113.38 475.5,112C 471.833,111.333 468.167,111.333 464.5,112C 449.437,115.694 434.437,119.694 419.5,124C 417.622,125.543 416.122,127.376 415,129.5C 414.333,148.167 414.333,166.833 415,185.5C 421.325,183.468 427.825,182.135 434.5,181.5C 434.177,167.921 434.51,154.421 435.5,141C 443.999,138.232 452.499,136.398 461,135.5C 461.667,153.833 461.667,172.167 461,190.5C 435.053,194.82 409.72,201.487 385,210.5C 384.333,222.5 384.333,234.5 385,246.5C 394.233,239.31 404.066,233.31 414.5,228.5C 414.666,235.508 414.5,242.508 414,249.5C 400.684,258.905 387.851,268.905 375.5,279.5 Z"/></g>
<g><path style="opacity:0.26" fill="#ffac08" d="M 789.5,98.5 C 824.833,98.5 860.167,98.5 895.5,98.5C 895.5,106.5 895.5,114.5 895.5,122.5C 894.508,115.018 894.175,107.352 894.5,99.5C 859.329,99.8317 824.329,99.4984 789.5,98.5 Z"/></g>
<g><path style="opacity:0.968" fill="#e4a740" d="M 789.5,98.5 C 824.329,99.4984 859.329,99.8317 894.5,99.5C 894.175,107.352 894.508,115.018 895.5,122.5C 895.5,123.167 895.167,123.5 894.5,123.5C 893.508,116.018 893.175,108.352 893.5,100.5C 858.167,100.5 822.833,100.5 787.5,100.5C 787.666,108.174 787.5,115.841 787,123.5C 787.14,115.104 786.307,107.104 784.5,99.5C 785.896,97.6275 787.563,97.2942 789.5,98.5 Z"/></g>
<g><path style="opacity:0.976" fill="#e1a443" d="M 1049.5,98.5 C 1073,99.3321 1096.66,99.8321 1120.5,100C 1096.09,100.823 1071.76,100.656 1047.5,99.5C 1048.01,97.8946 1048.67,97.5613 1049.5,98.5 Z"/></g>
<g><path style="opacity:1" fill="#e6a836" d="M 291.5,264.5 C 289.177,266.65 286.677,268.65 284,270.5C 282.97,270.164 282.47,269.497 282.5,268.5C 284.331,206.508 285.164,144.175 285,81.5C 285.167,143.169 285.667,204.836 286.5,266.5C 287.842,264.995 289.508,264.328 291.5,264.5 Z"/></g>
<g><path style="opacity:1" fill="#e4a73e" d="M 597.5,98.5 C 622.997,99.3322 648.663,99.8322 674.5,100C 648.835,100.5 623.169,100.667 597.5,100.5C 597.5,147.167 597.5,193.833 597.5,240.5C 622.006,240.169 646.339,240.502 670.5,241.5C 669.833,241.833 669.167,242.167 668.5,242.5C 644.672,241.502 620.672,241.169 596.5,241.5C 596.5,193.833 596.5,146.167 596.5,98.5C 596.833,97.1667 597.167,97.1667 597.5,98.5 Z"/></g>
<g><path style="opacity:1" fill="#fba505" d="M 597.5,98.5 C 623.835,98.3334 650.169,98.5 676.5,99C 699.908,104.078 710.741,118.578 709,142.5C 707.807,152.396 702.973,159.896 694.5,165C 707.977,172.768 714.644,184.601 714.5,200.5C 711.48,226.516 696.813,240.183 670.5,241.5C 646.339,240.502 622.006,240.169 597.5,240.5C 597.5,193.833 597.5,147.167 597.5,100.5C 623.169,100.667 648.835,100.5 674.5,100C 648.663,99.8322 622.997,99.3322 597.5,98.5 Z M 625.5,124.5 C 635.878,124.928 646.378,124.928 657,124.5C 661.127,125.239 665.294,125.739 669.5,126C 676.183,127.69 679.516,132.024 679.5,139C 679.172,146.325 675.505,150.991 668.5,153C 665.318,153.407 662.151,153.907 659,154.5C 647.793,153.526 636.626,153.526 625.5,154.5C 625.5,144.5 625.5,134.5 625.5,124.5 Z M 634.5,216.5 C 631.5,216.5 628.5,216.5 625.5,216.5C 625.5,204.5 625.5,192.5 625.5,180.5C 626.097,179.861 626.93,179.528 628,179.5C 641.812,180.29 655.645,180.79 669.5,181C 676.106,181.607 680.273,185.107 682,191.5C 685.091,207.535 678.591,215.702 662.5,216C 653.173,216.5 643.839,216.666 634.5,216.5 Z"/></g>
<g><path style="opacity:1" fill="#f8a304" d="M 767.5,241.5 C 766.501,194.336 766.168,147.003 766.5,99.5C 756.828,99.3335 747.161,99.5002 737.5,100C 746.827,100.5 756.161,100.666 765.5,100.5C 765.5,147.167 765.5,193.833 765.5,240.5C 756.494,240.334 747.494,240.5 738.5,241C 746.677,241.171 754.677,241.671 762.5,242.5C 753.582,242.817 744.749,242.484 736,241.5C 735.333,193.833 735.333,146.167 736,98.5C 736.725,97.9415 737.558,97.6082 738.5,97.5C 748.116,98.4707 757.616,98.8041 767,98.5C 767.5,146.166 767.667,193.832 767.5,241.5 Z"/></g>
<g><path style="opacity:1" fill="#fca605" d="M 784.5,99.5 C 786.307,107.104 787.14,115.104 787,123.5C 787.5,115.841 787.666,108.174 787.5,100.5C 822.833,100.5 858.167,100.5 893.5,100.5C 893.175,108.352 893.508,116.018 894.5,123.5C 870.357,153.819 846.357,184.319 822.5,215C 846.833,215.333 871.167,215.667 895.5,216C 896.833,224.667 896.833,233.333 895.5,242C 858.167,242.667 820.833,242.667 783.5,242C 782.18,233.167 782.18,224.333 783.5,215.5C 784.493,223.984 784.826,232.651 784.5,241.5C 821.167,241.5 857.833,241.5 894.5,241.5C 894.666,233.493 894.5,225.493 894,217.5C 893.5,225.159 893.334,232.826 893.5,240.5C 857.5,240.5 821.5,240.5 785.5,240.5C 785.5,231.5 785.5,222.5 785.5,213.5C 809,184.497 832.333,155.33 855.5,126C 832.167,125.667 808.833,125.333 785.5,125C 784.517,116.585 784.183,108.085 784.5,99.5 Z"/></g>
<g><path style="opacity:1" fill="#fda605" d="M 1015.5,215.5 C 1017.63,216.314 1019.96,216.814 1022.5,217C 1021.52,224.747 1021.18,232.58 1021.5,240.5C 986.498,240.333 951.498,240.5 916.5,241C 951.832,241.5 987.165,241.667 1022.5,241.5C 1022.34,238.482 1022.5,235.482 1023,232.5C 1023.5,235.146 1023.66,237.813 1023.5,240.5C 987.515,242.494 951.182,243.16 914.5,242.5C 914.5,194.5 914.5,146.5 914.5,98.5C 949.833,98.5 985.167,98.5 1020.5,98.5C 1020.63,107.262 1020.63,115.929 1020.5,124.5C 995.509,125.5 970.509,125.833 945.5,125.5C 945.334,135.172 945.5,144.839 946,154.5C 968.427,153.34 990.927,153.173 1013.5,154C 1014.48,162.749 1014.82,171.582 1014.5,180.5C 991.5,180.5 968.5,180.5 945.5,180.5C 945.5,192.167 945.5,203.833 945.5,215.5C 968.833,215.5 992.167,215.5 1015.5,215.5 Z"/></g>
<g><path style="opacity:1" fill="#faa408" d="M 1049.5,98.5 C 1076.17,98.3334 1102.84,98.5 1129.5,99C 1153.68,104.531 1165.52,119.697 1165,144.5C 1163.07,157.203 1156.57,166.703 1145.5,173C 1151.39,175.892 1155.56,180.392 1158,186.5C 1161,197.012 1161.84,207.678 1160.5,218.5C 1160.59,224.406 1161.76,230.073 1164,235.5C 1167.04,236.803 1168.21,239.136 1167.5,242.5C 1155.92,242.821 1144.42,242.488 1133,241.5C 1129.82,226.694 1128.15,211.694 1128,196.5C 1127.27,192.104 1124.77,189.27 1120.5,188C 1106.26,187.824 1092.09,187.324 1078,186.5C 1077.5,205.164 1077.33,223.83 1077.5,242.5C 1067.25,242.819 1057.08,242.486 1047,241.5C 1047.05,193.992 1047.22,146.659 1047.5,99.5C 1071.76,100.656 1096.09,100.823 1120.5,100C 1096.66,99.8321 1073,99.3321 1049.5,98.5 Z M 1077.5,124.5 C 1092.89,124.065 1108.22,124.565 1123.5,126C 1130.04,129.229 1133.37,134.563 1133.5,142C 1133.93,149.814 1130.93,155.814 1124.5,160C 1108.88,161.42 1093.22,161.92 1077.5,161.5C 1077.5,149.167 1077.5,136.833 1077.5,124.5 Z"/></g>
<g><path style="opacity:1" fill="#faa508" d="M 1229.5,98.5 C 1241.52,98.1677 1253.52,98.501 1265.5,99.5C 1282.58,147.062 1299.24,194.729 1315.5,242.5C 1304.16,242.667 1292.83,242.5 1281.5,242C 1278.17,232.669 1275.33,223.169 1273,213.5C 1272.59,213.043 1272.09,212.709 1271.5,212.5C 1255.3,213.828 1239.14,213.828 1223,212.5C 1218.64,222.099 1214.81,231.932 1211.5,242C 1200.51,242.5 1189.51,242.667 1178.5,242.5C 1195.11,194.345 1212.11,146.345 1229.5,98.5 Z M 1246.5,133.5 C 1252.46,151.296 1258.12,169.296 1263.5,187.5C 1252.15,187.832 1240.81,187.499 1229.5,186.5C 1236.18,169.125 1241.85,151.458 1246.5,133.5 Z"/></g>
<g><path style="opacity:0.417" fill="#fdab09" d="M 596.5,98.5 C 596.5,146.167 596.5,193.833 596.5,241.5C 620.672,241.169 644.672,241.502 668.5,242.5C 644.167,242.5 619.833,242.5 595.5,242.5C 595.168,194.33 595.501,146.33 596.5,98.5 Z"/></g>
<g><path style="opacity:0.834" fill="#f3b54b" d="M 767.5,241.5 C 766.081,242.451 764.415,242.784 762.5,242.5C 754.677,241.671 746.677,241.171 738.5,241C 747.494,240.5 756.494,240.334 765.5,240.5C 765.5,193.833 765.5,147.167 765.5,100.5C 756.161,100.666 746.827,100.5 737.5,100C 747.161,99.5002 756.828,99.3335 766.5,99.5C 766.168,147.003 766.501,194.336 767.5,241.5 Z"/></g>
<g><path style="opacity:0.999" fill="#fda504" d="M 486.5,193.5 C 491.08,193.113 495.414,193.947 499.5,196C 547.804,223.215 563.304,263.381 546,316.5C 532.327,345.51 509.827,363.343 478.5,370C 427.528,371.635 376.528,371.968 325.5,371C 325.167,370.667 324.833,370.333 324.5,370C 334.672,353.495 346.005,337.828 358.5,323C 393.833,322.667 429.167,322.333 464.5,322C 493.567,317.237 506.401,300.07 503,270.5C 500.192,258.025 493.192,248.692 482,242.5C 481.167,226.823 481.334,211.156 482.5,195.5C 484.026,195.006 485.359,194.339 486.5,193.5 Z"/></g>
<g><path style="opacity:1" fill="#f7a219" d="M 457.5,204.5 C 458.833,204.5 460.167,204.5 461.5,204.5C 461.667,215.172 461.5,225.839 461,236.5C 452.333,237.833 443.667,237.833 435,236.5C 434.333,229.5 434.333,222.5 435,215.5C 442.637,211.931 450.137,208.264 457.5,204.5 Z"/></g>
<g><path style="opacity:0.807" fill="#f3b748" d="M 375.5,279.5 C 374.758,281.35 373.758,282.016 372.5,281.5C 372.333,220.499 372.5,159.499 373,98.5C 373.333,158.5 373.667,218.5 374,278.5C 374.383,279.056 374.883,279.389 375.5,279.5 Z"/></g>
<g><path style="opacity:0.114" fill="#eda835" d="M 625.5,180.5 C 625.5,192.5 625.5,204.5 625.5,216.5C 628.5,216.5 631.5,216.5 634.5,216.5C 644.659,217.33 654.992,217.83 665.5,218C 651.504,218.5 637.504,218.667 623.5,218.5C 623.333,205.163 623.5,191.829 624,178.5C 624.278,179.416 624.778,180.082 625.5,180.5 Z"/></g>
<g><path style="opacity:0.883" fill="#e8aa42" d="M 785.5,213.5 C 785.5,222.5 785.5,231.5 785.5,240.5C 821.5,240.5 857.5,240.5 893.5,240.5C 893.334,232.826 893.5,225.159 894,217.5C 894.5,225.493 894.666,233.493 894.5,241.5C 857.833,241.5 821.167,241.5 784.5,241.5C 784.826,232.651 784.493,223.984 783.5,215.5C 783.833,214.5 784.5,213.833 785.5,213.5 Z"/></g>
<g><path style="opacity:0.88" fill="#d09839" d="M 1015.5,215.5 C 1018.19,215.336 1020.85,215.503 1023.5,216C 1024.02,216.561 1024.36,217.228 1024.5,218C 1024.72,225.575 1024.39,233.075 1023.5,240.5C 1023.66,237.813 1023.5,235.146 1023,232.5C 1022.5,235.482 1022.34,238.482 1022.5,241.5C 987.165,241.667 951.832,241.5 916.5,241C 951.498,240.5 986.498,240.333 1021.5,240.5C 1021.18,232.58 1021.52,224.747 1022.5,217C 1019.96,216.814 1017.63,216.314 1015.5,215.5 Z"/></g>
<g><path style="opacity:0.799" fill="#f8f8f8" d="M 595.5,257.5 C 600.844,257.334 606.177,257.501 611.5,258C 617.38,259.047 620.046,262.547 619.5,268.5C 619.647,271.253 618.98,273.753 617.5,276C 620.929,281.13 621.429,286.63 619,292.5C 617.581,293.46 616.081,294.293 614.5,295C 608.222,296.188 601.888,296.688 595.5,296.5C 595.5,283.5 595.5,270.5 595.5,257.5 Z M 604.5,265.5 C 606.042,266.301 607.708,266.634 609.5,266.5C 609.5,268.5 609.5,270.5 609.5,272.5C 607.5,272.5 605.5,272.5 603.5,272.5C 603.298,270.05 603.631,267.717 604.5,265.5 Z M 603.5,281.5 C 605.833,281.5 608.167,281.5 610.5,281.5C 610.5,283.5 610.5,285.5 610.5,287.5C 608.167,287.5 605.833,287.5 603.5,287.5C 603.5,285.5 603.5,283.5 603.5,281.5 Z"/></g>
<g><path style="opacity:0.751" fill="#f6f7f7" d="M 648.5,257.5 C 655.833,257.5 663.167,257.5 670.5,257.5C 670.664,260.187 670.497,262.854 670,265.5C 666.212,272.912 662.045,280.079 657.5,287C 661.821,287.499 666.154,287.666 670.5,287.5C 670.777,290.448 670.444,293.281 669.5,296C 662.508,296.5 655.508,296.666 648.5,296.5C 648.335,293.15 648.502,289.817 649,286.5C 652.808,279.562 656.308,272.562 659.5,265.5C 655.894,265.211 652.394,265.544 649,266.5C 648.774,263.905 648.274,261.405 647.5,259C 648.056,258.617 648.389,258.117 648.5,257.5 Z"/></g>
<g><path style="opacity:0.781" fill="#f3f4f4" d="M 679.5,257.5 C 687.167,257.5 694.833,257.5 702.5,257.5C 702.777,260.448 702.444,263.281 701.5,266C 697.254,265.633 692.92,265.467 688.5,265.5C 688.5,267.833 688.5,270.167 688.5,272.5C 692.5,272.5 696.5,272.5 700.5,272.5C 700.5,275.5 700.5,278.5 700.5,281.5C 696.5,281.5 692.5,281.5 688.5,281.5C 688.5,283.5 688.5,285.5 688.5,287.5C 693.167,287.5 697.833,287.5 702.5,287.5C 702.777,290.448 702.444,293.281 701.5,296C 693.92,296.813 686.42,296.647 679,295.5C 679.023,282.732 679.19,270.066 679.5,257.5 Z"/></g>
<g><path style="opacity:0.769" fill="#f7f8f8" d="M 711.5,257.5 C 716.844,257.334 722.177,257.501 727.5,258C 731.02,258.504 733.52,260.337 735,263.5C 735.667,268.833 735.667,274.167 735,279.5C 733.833,282 732,283.833 729.5,285C 731.302,288.3 733.302,291.467 735.5,294.5C 735.291,295.086 734.957,295.586 734.5,296C 731.446,296.821 728.446,296.655 725.5,295.5C 722.135,285.972 720.802,286.306 721.5,296.5C 718.223,296.784 715.057,296.451 712,295.5C 711.5,282.838 711.333,270.171 711.5,257.5 Z M 721.5,265.5 C 723.086,266.148 724.753,266.648 726.5,267C 726.686,270.005 726.353,273.172 725.5,276.5C 724.167,276.5 722.833,276.5 721.5,276.5C 721.5,272.833 721.5,269.167 721.5,265.5 Z"/></g>
<g><path style="opacity:0.802" fill="#f1f1f3" d="M 756.5,257.5 C 759.711,257.012 762.544,257.679 765,259.5C 769.222,271.662 772.722,283.996 775.5,296.5C 768.981,298.327 765.648,295.994 765.5,289.5C 761.833,289.5 758.167,289.5 754.5,289.5C 754.896,292.044 754.229,294.211 752.5,296C 749.854,296.497 747.187,296.664 744.5,296.5C 747.747,283.263 751.747,270.263 756.5,257.5 Z M 759.5,273.5 C 762.067,276.39 761.9,279.057 759,281.5C 758.825,278.843 758.992,276.176 759.5,273.5 Z"/></g>
<g><path style="opacity:0.78" fill="#f7f8f7" d="M 807.5,257.5 C 813.176,257.334 818.843,257.501 824.5,258C 829,258.5 831.5,261 832,265.5C 832.667,273.167 832.667,280.833 832,288.5C 831.608,291.455 830.108,293.622 827.5,295C 820.631,296.506 813.797,296.673 807,295.5C 806.188,282.758 806.354,270.091 807.5,257.5 Z M 816.5,265.5 C 818.861,265.674 821.194,266.007 823.5,266.5C 823.666,273.175 823.5,279.842 823,286.5C 820.959,287.423 818.792,287.756 816.5,287.5C 816.5,280.167 816.5,272.833 816.5,265.5 Z"/></g>
<g><path style="opacity:0.843" fill="#e7e8e8" d="M 842.5,257.5 C 845.187,257.336 847.854,257.503 850.5,258C 851.059,258.725 851.392,259.558 851.5,260.5C 851.396,272.129 851.23,283.795 851,295.5C 848.281,296.444 845.448,296.777 842.5,296.5C 842.5,283.5 842.5,270.5 842.5,257.5 Z"/></g>
<g><path style="opacity:0.746" fill="#f1f2f3" d="M 866.5,257.5 C 872.29,257.096 877.956,257.596 883.5,259C 885.929,262.041 886.929,265.541 886.5,269.5C 883.5,269.5 880.5,269.5 877.5,269.5C 877.67,268.178 877.337,267.011 876.5,266C 874.527,265.505 872.527,265.338 870.5,265.5C 869.489,272.811 869.489,280.145 870.5,287.5C 872.833,287.5 875.167,287.5 877.5,287.5C 877.5,285.5 877.5,283.5 877.5,281.5C 876.022,281.762 874.689,281.429 873.5,280.5C 872.438,277.897 872.272,275.23 873,272.5C 877.401,271.533 881.901,271.2 886.5,271.5C 886.666,277.842 886.5,284.175 886,290.5C 883.554,295.39 879.554,297.39 874,296.5C 867.707,297.532 863.374,295.198 861,289.5C 860.333,281.5 860.333,273.5 861,265.5C 861.625,261.891 863.458,259.224 866.5,257.5 Z"/></g>
<g><path style="opacity:0.826" fill="#f8f8f9" d="M 896.5,257.5 C 899.187,257.336 901.854,257.503 904.5,258C 904.957,258.414 905.291,258.914 905.5,259.5C 904.187,270.814 904.187,282.148 905.5,293.5C 905.392,294.442 905.059,295.275 904.5,296C 901.854,296.497 899.187,296.664 896.5,296.5C 896.5,283.5 896.5,270.5 896.5,257.5 Z"/></g>
<g><path style="opacity:0.819" fill="#f5f5f6" d="M 914.5,257.5 C 923.173,257.334 931.84,257.5 940.5,258C 941.435,260.381 941.768,262.881 941.5,265.5C 938.167,265.5 934.833,265.5 931.5,265.5C 931.577,275.523 931.744,285.523 932,295.5C 929.281,296.444 926.448,296.777 923.5,296.5C 923.5,286.167 923.5,275.833 923.5,265.5C 920.748,265.578 918.082,265.745 915.5,266C 914.556,263.281 914.223,260.448 914.5,257.5 Z"/></g>
<g><path style="opacity:0.753" fill="#f2f2f3" d="M 984.5,257.5 C 987.5,257.5 990.5,257.5 993.5,257.5C 993.5,267.5 993.5,277.5 993.5,287.5C 997.767,287.203 1001.93,287.536 1006,288.5C 1006.77,291.099 1006.6,293.599 1005.5,296C 998.253,296.812 991.086,296.646 984,295.5C 983.188,282.758 983.354,270.091 984.5,257.5 Z"/></g>
<g><path style="opacity:0.801" fill="#e1e0e8" d="M 1037.5,257.5 C 1040.5,257.5 1043.5,257.5 1046.5,257.5C 1046.67,270.171 1046.5,282.838 1046,295.5C 1043,296.833 1040,296.833 1037,295.5C 1036.19,282.758 1036.35,270.091 1037.5,257.5 Z"/></g>
<g><path style="opacity:0.763" fill="#fafafa" d="M 1055.5,257.5 C 1058.45,257.223 1061.28,257.556 1064,258.5C 1067,264.167 1070,269.833 1073,275.5C 1073.5,269.509 1073.67,263.509 1073.5,257.5C 1076.5,257.5 1079.5,257.5 1082.5,257.5C 1082.67,270.171 1082.5,282.838 1082,295.5C 1079.08,297.013 1076.42,296.68 1074,294.5C 1070.73,288.96 1067.73,283.293 1065,277.5C 1064.5,283.825 1064.33,290.158 1064.5,296.5C 1061.5,296.5 1058.5,296.5 1055.5,296.5C 1055.5,283.5 1055.5,270.5 1055.5,257.5 Z"/></g>
<g><path style="opacity:0.807" fill="#f8f9f9" d="M 1092.5,257.5 C 1098.18,257.334 1103.84,257.501 1109.5,258C 1112.03,258.516 1114.2,259.683 1116,261.5C 1117.61,271.066 1117.95,280.733 1117,290.5C 1114.18,294.325 1110.35,296.158 1105.5,296C 1100.91,296.799 1096.41,296.632 1092,295.5C 1092.46,282.916 1092.63,270.249 1092.5,257.5 Z M 1101.5,265.5 C 1103.83,265.247 1105.83,265.914 1107.5,267.5C 1108.62,273.448 1108.79,279.448 1108,285.5C 1105.86,287.278 1103.36,287.945 1100.5,287.5C 1100.2,280.08 1100.54,272.746 1101.5,265.5 Z"/></g>
<g><path style="opacity:0.793" fill="#f2f2f4" d="M 1132.5,257.5 C 1137.51,257.334 1142.51,257.501 1147.5,258C 1149.33,258.5 1150.5,259.667 1151,261.5C 1152.59,271.092 1152.92,280.758 1152,290.5C 1151.17,293.333 1149.33,295.167 1146.5,296C 1140.29,297.245 1134.46,296.412 1129,293.5C 1126.08,283.267 1125.75,272.933 1128,262.5C 1129.02,260.313 1130.52,258.646 1132.5,257.5 Z M 1137.5,265.5 C 1139.79,265.244 1141.96,265.577 1144,266.5C 1144.67,273.167 1144.67,279.833 1144,286.5C 1141.62,287.435 1139.12,287.768 1136.5,287.5C 1136.2,280.08 1136.54,272.746 1137.5,265.5 Z"/></g>
<g><path style="opacity:0.784" fill="#f1f1f4" d="M 1162.5,257.5 C 1165.45,257.223 1168.28,257.556 1171,258.5C 1173.75,264.325 1176.75,269.992 1180,275.5C 1180.5,269.509 1180.67,263.509 1180.5,257.5C 1183.52,257.335 1186.52,257.502 1189.5,258C 1190.02,258.561 1190.36,259.228 1190.5,260C 1190.56,271.755 1190.4,283.588 1190,295.5C 1187.33,296.833 1184.67,296.833 1182,295.5C 1178.15,289.79 1174.81,283.79 1172,277.5C 1171.67,283.5 1171.33,289.5 1171,295.5C 1168.28,296.444 1165.45,296.777 1162.5,296.5C 1162.5,283.5 1162.5,270.5 1162.5,257.5 Z"/></g>
<g><path style="opacity:0.776" fill="#f9fafa" d="M 1199.5,257.5 C 1207.17,257.5 1214.83,257.5 1222.5,257.5C 1222.66,260.187 1222.5,262.854 1222,265.5C 1217.64,265.516 1213.14,265.683 1208.5,266C 1207.58,268.041 1207.24,270.208 1207.5,272.5C 1211.88,272.174 1216.22,272.508 1220.5,273.5C 1220.71,274.086 1221.04,274.586 1221.5,275C 1221.59,276.716 1221.26,278.549 1220.5,280.5C 1216.22,281.492 1211.88,281.826 1207.5,281.5C 1207.5,283.5 1207.5,285.5 1207.5,287.5C 1212.5,287.5 1217.5,287.5 1222.5,287.5C 1222.78,290.448 1222.44,293.281 1221.5,296C 1214.17,296.5 1206.84,296.666 1199.5,296.5C 1199.5,283.5 1199.5,270.5 1199.5,257.5 Z"/></g>
<g><path style="opacity:0.762" fill="#f5f6f6" d="M 1235.5,257.5 C 1240.51,257.334 1245.51,257.501 1250.5,258C 1254.24,261.323 1255.74,265.49 1255,270.5C 1252.28,271.444 1249.45,271.777 1246.5,271.5C 1246.5,269.5 1246.5,267.5 1246.5,265.5C 1241.88,264.408 1240.04,266.075 1241,270.5C 1245.61,271.925 1249.94,273.925 1254,276.5C 1259.42,293.085 1253.58,299.585 1236.5,296C 1234.92,295.293 1233.42,294.46 1232,293.5C 1230.89,289.914 1230.39,286.247 1230.5,282.5C 1233.83,282.5 1237.17,282.5 1240.5,282.5C 1240.5,284.167 1240.5,285.833 1240.5,287.5C 1242.53,287.662 1244.53,287.495 1246.5,287C 1247.83,285.667 1247.83,284.333 1246.5,283C 1242.88,281.513 1239.22,280.18 1235.5,279C 1233.95,277.786 1232.78,276.286 1232,274.5C 1231.33,270.167 1231.33,265.833 1232,261.5C 1233.1,260.051 1234.27,258.718 1235.5,257.5 Z"/></g>
<g><path style="opacity:0.72" fill="#fcfdfc" d="M 1265.5,257.5 C 1268.5,257.5 1271.5,257.5 1274.5,257.5C 1274.67,270.171 1274.5,282.838 1274,295.5C 1271.28,296.444 1268.45,296.777 1265.5,296.5C 1265.5,283.5 1265.5,270.5 1265.5,257.5 Z"/></g>
<g><path style="opacity:0.781" fill="#f1f1f3" d="M 1296.5,257.5 C 1298.83,257.5 1301.17,257.5 1303.5,257.5C 1307.9,270.374 1311.9,283.374 1315.5,296.5C 1312.48,296.665 1309.48,296.498 1306.5,296C 1305.33,293.993 1304.66,291.827 1304.5,289.5C 1301.48,289.335 1298.48,289.502 1295.5,290C 1294.33,296.15 1290.66,298.15 1284.5,296C 1284.04,295.586 1283.71,295.086 1283.5,294.5C 1288.04,282.214 1292.37,269.88 1296.5,257.5 Z M 1299.5,273.5 C 1300.53,275.961 1301.2,278.627 1301.5,281.5C 1300.13,281.657 1298.79,281.49 1297.5,281C 1298.55,278.618 1299.22,276.118 1299.5,273.5 Z"/></g>
<g><path style="opacity:0.771" fill="#e5e5e7" d="M 629.5,257.5 C 632.5,257.5 635.5,257.5 638.5,257.5C 638.667,270.171 638.5,282.838 638,295.5C 635.199,296.795 632.366,296.795 629.5,295.5C 628.188,282.771 628.188,270.104 629.5,257.5 Z"/></g>
<g><path style="opacity:0.791" fill="#f1f2f3" d="M 954.5,257.5 C 957.711,257.012 960.544,257.679 963,259.5C 966.833,271 970.667,282.5 974.5,294C 974.355,294.772 974.022,295.439 973.5,296C 970.833,296.667 968.167,296.667 965.5,296C 964.76,294.215 964.093,292.382 963.5,290.5C 960.167,289.167 956.833,289.167 953.5,290.5C 951.742,296.366 948.075,297.866 942.5,295C 947.19,282.716 951.19,270.216 954.5,257.5 Z M 957.5,275.5 C 959.614,276.784 960.614,278.784 960.5,281.5C 959.167,281.5 957.833,281.5 956.5,281.5C 956.833,279.5 957.167,277.5 957.5,275.5 Z"/></g>
<g><path style="opacity:1" fill="#faa60b" d="M 348.5,278.5 C 349.825,282.445 350.492,286.778 350.5,291.5C 350.614,296.609 350.114,301.609 349,306.5C 331.589,324.746 317.089,345.08 305.5,367.5C 304.277,368.614 302.944,368.781 301.5,368C 297.084,365.588 293.251,362.422 290,358.5C 296.415,344.357 304.415,331.024 314,318.5C 324.588,304.41 336.088,291.076 348.5,278.5 Z"/></g>
<g><path style="opacity:0.648" fill="#f1f0f4" d="M 601.5,307.5 C 603.924,307.192 606.257,307.526 608.5,308.5C 610.853,314.532 613.186,320.532 615.5,326.5C 613.473,326.662 611.473,326.495 609.5,326C 606.5,322.667 603.5,322.667 600.5,326C 598.866,326.494 597.199,326.66 595.5,326.5C 597.78,320.269 599.78,313.935 601.5,307.5 Z M 604.5,315.5 C 607.377,317.846 607.044,318.679 603.5,318C 604.252,317.329 604.586,316.496 604.5,315.5 Z"/></g>
<g><path style="opacity:0.677" fill="#f2f3f4" d="M 619.5,307.5 C 621.467,307.261 623.301,307.594 625,308.5C 624.804,312.791 624.637,317.124 624.5,321.5C 628.315,320.918 631.649,321.752 634.5,324C 634.043,324.414 633.709,324.914 633.5,325.5C 628.95,326.8 624.45,326.8 620,325.5C 619.501,319.509 619.334,313.509 619.5,307.5 Z"/></g>
<g><path style="opacity:0.659" fill="#e4e4e5" d="M 641.5,306.5 C 642.458,306.953 643.292,307.619 644,308.5C 644.767,312.558 644.6,316.558 643.5,320.5C 646.173,321.432 648.839,321.598 651.5,321C 652.833,322.667 652.833,324.333 651.5,326C 647.129,326.828 642.795,326.661 638.5,325.5C 638.394,319.681 638.394,313.681 638.5,307.5C 639.791,307.737 640.791,307.404 641.5,306.5 Z"/></g>
<g><path style="opacity:0.655" fill="#fbfcfd" d="M 668.5,307.5 C 670.167,307.5 671.833,307.5 673.5,307.5C 673.5,313.833 673.5,320.167 673.5,326.5C 671.833,326.5 670.167,326.5 668.5,326.5C 668.5,320.167 668.5,313.833 668.5,307.5 Z"/></g>
<g><path style="opacity:0.622" fill="#e8e9ec" d="M 679.5,307.5 C 681.604,307.201 683.604,307.534 685.5,308.5C 687.333,310.833 689.167,313.167 691,315.5C 691.497,312.854 691.664,310.187 691.5,307.5C 693.5,307.5 695.5,307.5 697.5,307.5C 697.5,313.833 697.5,320.167 697.5,326.5C 695.396,326.799 693.396,326.466 691.5,325.5C 689.333,322.5 687.167,319.5 685,316.5C 685.128,319.486 685.128,322.486 685,325.5C 683.301,326.406 681.467,326.739 679.5,326.5C 679.5,320.167 679.5,313.833 679.5,307.5 Z"/></g>
<g><path style="opacity:0.606" fill="#ededf1" d="M 719.5,307.5 C 728.998,306.173 733.498,310.173 733,319.5C 730.575,325.795 726.075,327.962 719.5,326C 714.268,323.367 712.435,319.201 714,313.5C 715.36,310.977 717.193,308.977 719.5,307.5 Z M 720.5,312.5 C 727.676,311.985 729.342,314.818 725.5,321C 723.299,321.825 721.466,321.325 720,319.5C 719.297,317.071 719.463,314.738 720.5,312.5 Z"/></g>
<g><path style="opacity:0.621" fill="#f0eef4" d="M 753.5,306.5 C 754.15,306.804 754.817,307.137 755.5,307.5C 756.496,313.798 756.83,320.132 756.5,326.5C 754.801,326.66 753.134,326.494 751.5,326C 749.333,323.167 747.167,320.333 745,317.5C 744.502,320.482 744.335,323.482 744.5,326.5C 742.5,326.5 740.5,326.5 738.5,326.5C 738.5,320.167 738.5,313.833 738.5,307.5C 740.527,307.338 742.527,307.505 744.5,308C 746.333,310.5 748.167,313 750,315.5C 750.497,312.854 750.664,310.187 750.5,307.5C 751.791,307.737 752.791,307.404 753.5,306.5 Z"/></g>
<g><path style="opacity:0.711" fill="#e5e3ea" d="M 762.5,307.5 C 767.5,307.5 772.5,307.5 777.5,307.5C 777.714,309.144 777.38,310.644 776.5,312C 764.518,312.83 764.518,313.33 776.5,313.5C 776.739,315.467 776.406,317.301 775.5,319C 772.774,319.182 770.107,319.682 767.5,320.5C 770.516,321.463 773.516,321.629 776.5,321C 777.406,322.699 777.739,324.533 777.5,326.5C 772.456,326.827 767.456,326.494 762.5,325.5C 762.394,319.681 762.394,313.681 762.5,307.5 Z"/></g>
<g><path style="opacity:0.562" fill="#e9e9eb" d="M 796.5,307.5 C 799.518,307.335 802.518,307.502 805.5,308C 808.081,309.841 808.081,311.674 805.5,313.5C 803.452,312.23 801.452,311.897 799.5,312.5C 802.742,313.52 805.575,315.187 808,317.5C 808.64,325.83 804.807,328.663 796.5,326C 791.844,324.249 791.511,322.082 795.5,319.5C 797.957,321.225 800.623,321.725 803.5,321C 800,319.724 796.833,317.891 794,315.5C 793.018,312.225 793.851,309.559 796.5,307.5 Z"/></g>
<g><path style="opacity:0.595" fill="#eeedf1" d="M 812.5,307.5 C 814.527,307.338 816.527,307.505 818.5,308C 819.542,309.918 820.708,311.751 822,313.5C 823.292,311.751 824.458,309.918 825.5,308C 827.134,307.506 828.801,307.34 830.5,307.5C 829.226,311.381 827.393,315.048 825,318.5C 824.667,320.833 824.333,323.167 824,325.5C 821.695,326.939 819.862,326.439 818.5,324C 819.554,322.612 819.72,321.112 819,319.5C 816.535,315.563 814.368,311.563 812.5,307.5 Z"/></g>
<g><path style="opacity:0.561" fill="#e9e9ec" d="M 838.5,307.5 C 841.518,307.335 844.518,307.502 847.5,308C 850.318,310.115 850.151,311.948 847,313.5C 844.778,311.722 842.612,311.555 840.5,313C 844.062,313.739 847.228,315.239 850,317.5C 850.782,320.257 850.282,322.757 848.5,325C 843.304,327.435 838.637,326.769 834.5,323C 834.725,321.379 835.558,320.212 837,319.5C 839.402,321.235 841.902,321.568 844.5,320.5C 841.885,319.238 839.218,318.072 836.5,317C 833.743,313.107 834.409,309.94 838.5,307.5 Z"/></g>
<g><path style="opacity:0.583" fill="#e4e4e7" d="M 854.5,307.5 C 860.167,307.5 865.833,307.5 871.5,307.5C 871.985,312.159 870.152,313.492 866,311.5C 865.501,316.489 865.334,321.489 865.5,326.5C 863.533,326.739 861.699,326.406 860,325.5C 859.501,321.179 859.334,316.846 859.5,312.5C 855.247,312.92 853.58,311.254 854.5,307.5 Z"/></g>
<g><path style="opacity:0.701" fill="#d5d2dc" d="M 875.5,307.5 C 880.833,307.5 886.167,307.5 891.5,307.5C 891.714,309.144 891.38,310.644 890.5,312C 887.167,312.333 883.833,312.667 880.5,313C 883.5,313.333 886.5,313.667 889.5,314C 891.09,316.48 890.59,318.313 888,319.5C 885.371,318.575 883.038,318.575 881,319.5C 880.833,319.833 880.667,320.167 880.5,320.5C 884.041,321.2 887.541,321.867 891,322.5C 891.684,323.784 891.517,324.951 890.5,326C 885.581,326.802 880.748,326.635 876,325.5C 875.501,319.509 875.334,313.509 875.5,307.5 Z"/></g>
<g><path style="opacity:0.594" fill="#f9f8f9" d="M 896.5,307.5 C 898.199,307.34 899.866,307.506 901.5,308C 902.966,310.814 904.466,313.647 906,316.5C 907.373,313.588 908.873,310.754 910.5,308C 912.473,307.505 914.473,307.338 916.5,307.5C 916.5,313.833 916.5,320.167 916.5,326.5C 914.5,326.5 912.5,326.5 910.5,326.5C 910.663,324.143 910.497,321.81 910,319.5C 906.801,326.188 904.134,325.855 902,318.5C 901.503,321.146 901.336,323.813 901.5,326.5C 899.833,326.5 898.167,326.5 896.5,326.5C 896.5,320.167 896.5,313.833 896.5,307.5 Z"/></g>
<g><path style="opacity:0.574" fill="#e1e0e4" d="M 932.5,307.5 C 937.833,307.5 943.167,307.5 948.5,307.5C 948.714,309.144 948.38,310.644 947.5,312C 944.571,312.777 941.737,312.61 939,311.5C 938.333,312.5 938.333,313.5 939,314.5C 941.401,313.398 943.901,313.231 946.5,314C 947.406,315.699 947.739,317.533 947.5,319.5C 944.5,319.5 941.5,319.5 938.5,319.5C 938.5,321.833 938.5,324.167 938.5,326.5C 936.5,326.5 934.5,326.5 932.5,326.5C 932.5,320.167 932.5,313.833 932.5,307.5 Z"/></g>
<g><path style="opacity:0.606" fill="#e7e6ea" d="M 958.5,307.5 C 966.524,306.167 971.524,309.333 973.5,317C 971.434,324.867 966.434,327.867 958.5,326C 952.831,323.185 950.998,318.685 953,312.5C 954.406,310.256 956.239,308.59 958.5,307.5 Z M 960.5,311.5 C 961.688,312.684 962.855,312.684 964,311.5C 968.384,314.509 968.551,317.675 964.5,321C 957.511,320.19 956.178,317.023 960.5,311.5 Z"/></g>
<g><path style="opacity:0.628" fill="#e8e8ea" d="M 977.5,307.5 C 981.514,307.334 985.514,307.501 989.5,308C 995.838,311.386 996.171,315.386 990.5,320C 996.329,324.835 995.662,326.835 988.5,326C 987.111,324.043 985.611,322.21 984,320.5C 983.5,320.667 983,320.833 982.5,321C 984.334,325.675 982.667,327.508 977.5,326.5C 977.5,320.167 977.5,313.833 977.5,307.5 Z M 982.5,313.5 C 984.364,312.207 986.364,312.207 988.5,313.5C 986.956,315.446 984.956,315.946 982.5,315C 983.738,314.31 983.738,313.81 982.5,313.5 Z"/></g>
<g><path style="opacity:0.569" fill="#ebebef" d="M 1009.5,307.5 C 1011.53,307.338 1013.53,307.505 1015.5,308C 1017.38,310.251 1018.88,312.751 1020,315.5C 1022,313.507 1023.5,311.173 1024.5,308.5C 1026.4,307.534 1028.4,307.201 1030.5,307.5C 1030.67,313.509 1030.5,319.509 1030,325.5C 1028.33,326.833 1026.67,326.833 1025,325.5C 1024.67,323.167 1024.33,320.833 1024,318.5C 1021.65,326.355 1018.98,326.355 1016,318.5C 1015.5,321.146 1015.34,323.813 1015.5,326.5C 1013.53,326.739 1011.7,326.406 1010,325.5C 1009.5,319.509 1009.33,313.509 1009.5,307.5 Z"/></g>
<g><path style="opacity:0.621" fill="#ecebed" d="M 1041.5,307.5 C 1053.79,306.941 1057.62,312.274 1053,323.5C 1046.28,328.203 1040.61,327.203 1036,320.5C 1035.33,317.833 1035.33,315.167 1036,312.5C 1037.73,310.598 1039.56,308.931 1041.5,307.5 Z M 1042.5,312.5 C 1049.68,311.985 1051.34,314.818 1047.5,321C 1045.3,321.825 1043.47,321.325 1042,319.5C 1041.44,317.115 1041.61,314.782 1042.5,312.5 Z"/></g>
<g><path style="opacity:0.594" fill="#f4f4f5" d="M 1060.5,307.5 C 1065.67,307.09 1070.67,307.757 1075.5,309.5C 1080.46,316.625 1079.13,322.125 1071.5,326C 1068.17,326.667 1064.83,326.667 1061.5,326C 1060.52,319.924 1060.19,313.758 1060.5,307.5 Z M 1066.5,311.5 C 1072.86,311.968 1074.52,314.801 1071.5,320C 1069.98,321.009 1068.31,321.509 1066.5,321.5C 1066.5,318.167 1066.5,314.833 1066.5,311.5 Z"/></g>
<g><path style="opacity:0.653" fill="#e4e2e8" d="M 1083.5,307.5 C 1088.83,307.5 1094.17,307.5 1099.5,307.5C 1099.71,309.144 1099.38,310.644 1098.5,312C 1095.23,312.334 1092.23,312.501 1089.5,312.5C 1092.11,313.318 1094.77,313.818 1097.5,314C 1099.43,318.242 1098.27,319.742 1094,318.5C 1092.37,318.878 1090.87,319.544 1089.5,320.5C 1092.37,321.783 1095.21,321.783 1098,320.5C 1099.44,321.93 1099.77,323.597 1099,325.5C 1094,326.833 1089,326.833 1084,325.5C 1083.5,319.509 1083.33,313.509 1083.5,307.5 Z"/></g>
<g><path style="opacity:0.622" fill="#e8e9ea" d="M 1104.5,307.5 C 1108.51,307.334 1112.51,307.501 1116.5,308C 1121.46,311.303 1121.8,315.136 1117.5,319.5C 1119.02,321.662 1120.02,323.995 1120.5,326.5C 1118.8,326.66 1117.13,326.494 1115.5,326C 1113.71,324.22 1112.04,322.387 1110.5,320.5C 1109.53,322.396 1109.2,324.396 1109.5,326.5C 1107.53,326.739 1105.7,326.406 1104,325.5C 1104.39,319.386 1104.55,313.386 1104.5,307.5 Z M 1109.5,311.5 C 1111.04,312.301 1112.71,312.634 1114.5,312.5C 1114.5,313.5 1114.5,314.5 1114.5,315.5C 1112.83,315.5 1111.17,315.5 1109.5,315.5C 1109.5,314.167 1109.5,312.833 1109.5,311.5 Z"/></g>
<g><path style="opacity:0.546" fill="#f4f6f6" d="M 1125.5,307.5 C 1127.6,307.201 1129.6,307.534 1131.5,308.5C 1133.33,310.833 1135.17,313.167 1137,315.5C 1137.5,312.854 1137.66,310.187 1137.5,307.5C 1139.5,307.5 1141.5,307.5 1143.5,307.5C 1143.5,313.833 1143.5,320.167 1143.5,326.5C 1141.8,326.66 1140.13,326.494 1138.5,326C 1135.64,323.106 1133.14,319.939 1131,316.5C 1130.87,319.514 1130.87,322.514 1131,325.5C 1129.33,326.833 1127.67,326.833 1126,325.5C 1125.5,319.509 1125.33,313.509 1125.5,307.5 Z"/></g>
<g><path style="opacity:0.628" fill="#f2f2f3" d="M 1160.5,307.5 C 1164.85,307.334 1169.18,307.501 1173.5,308C 1175.68,310.418 1176.01,313.084 1174.5,316C 1177.34,319.619 1177.01,322.952 1173.5,326C 1169.18,326.499 1164.85,326.666 1160.5,326.5C 1160.5,320.167 1160.5,313.833 1160.5,307.5 Z M 1166.5,311.5 C 1168.67,311.891 1170,312.558 1170.5,313.5C 1168.52,313.843 1167.18,313.176 1166.5,311.5 Z M 1166.5,318.5 C 1168.29,318.215 1169.95,318.548 1171.5,319.5C 1170.33,321.217 1168.66,321.884 1166.5,321.5C 1166.5,320.5 1166.5,319.5 1166.5,318.5 Z"/></g>
<g><path style="opacity:0.584" fill="#f4f3f6" d="M 1181.5,307.5 C 1183.5,307.5 1185.5,307.5 1187.5,307.5C 1187.33,311.514 1187.5,315.514 1188,319.5C 1190,322.167 1192,322.167 1194,319.5C 1194.5,315.514 1194.67,311.514 1194.5,307.5C 1196.17,307.5 1197.83,307.5 1199.5,307.5C 1199.67,312.179 1199.5,316.845 1199,321.5C 1196.1,326.155 1191.94,327.655 1186.5,326C 1184.62,324.457 1183.12,322.624 1182,320.5C 1181.5,316.179 1181.33,311.846 1181.5,307.5 Z"/></g>
<g><path style="opacity:0.565" fill="#e6e6ea" d="M 1208.5,307.5 C 1211.91,307.249 1215.24,307.583 1218.5,308.5C 1219.75,310.006 1219.75,311.506 1218.5,313C 1216.51,312.862 1214.51,312.362 1212.5,311.5C 1211.83,311.833 1211.17,312.167 1210.5,312.5C 1213.93,313.697 1217.1,315.364 1220,317.5C 1221.27,323.624 1218.77,326.624 1212.5,326.5C 1209.95,326.558 1207.62,325.891 1205.5,324.5C 1204.25,322.994 1204.25,321.494 1205.5,320C 1207.91,319.852 1210.24,320.352 1212.5,321.5C 1213.17,321.167 1213.83,320.833 1214.5,320.5C 1211.07,319.303 1207.9,317.636 1205,315.5C 1203.78,311.707 1204.95,309.04 1208.5,307.5 Z"/></g>
<g><path style="opacity:0.555" fill="#d7d7d8" d="M 1225.5,307.5 C 1227.17,307.5 1228.83,307.5 1230.5,307.5C 1230.5,313.833 1230.5,320.167 1230.5,326.5C 1228.23,326.859 1226.4,326.192 1225,324.5C 1224.22,318.751 1224.38,313.084 1225.5,307.5 Z"/></g>
<g><path style="opacity:0.579" fill="#f6f6f8" d="M 1247.5,315.5 C 1247.56,316.043 1247.89,316.376 1248.5,316.5C 1249.48,313.914 1249.81,311.247 1249.5,308.5C 1250.92,307.549 1252.59,307.216 1254.5,307.5C 1254.67,313.509 1254.5,319.509 1254,325.5C 1252.61,326.554 1251.11,326.72 1249.5,326C 1247.21,323.257 1245.05,320.423 1243,317.5C 1242.5,320.482 1242.34,323.482 1242.5,326.5C 1240.5,326.5 1238.5,326.5 1236.5,326.5C 1236.5,320.167 1236.5,313.833 1236.5,307.5C 1238.53,307.338 1240.53,307.505 1242.5,308C 1244.39,310.382 1246.06,312.882 1247.5,315.5 Z"/></g>
<g><path style="opacity:0.693" fill="#dcdae1" d="M 1259.5,307.5 C 1264.83,307.5 1270.17,307.5 1275.5,307.5C 1275.71,309.144 1275.38,310.644 1274.5,312C 1271.5,312.333 1268.5,312.667 1265.5,313C 1268.17,313.333 1270.83,313.667 1273.5,314C 1274.99,316.2 1274.66,318.034 1272.5,319.5C 1270.55,318.744 1268.72,318.411 1267,318.5C 1266.31,319.025 1265.81,319.692 1265.5,320.5C 1268.77,321.487 1272.1,321.82 1275.5,321.5C 1275.71,323.144 1275.38,324.644 1274.5,326C 1269.83,326.667 1265.17,326.667 1260.5,326C 1260.7,319.897 1260.37,313.731 1259.5,307.5 Z"/></g>
<g><path style="opacity:0.559" fill="#e4e4e7" d="M 1283.5,307.5 C 1287.87,306.923 1291.87,307.757 1295.5,310C 1293.69,313.999 1291.02,314.499 1287.5,311.5C 1286.69,311.808 1286.03,312.308 1285.5,313C 1289.13,313.564 1292.29,315.064 1295,317.5C 1295.94,320.347 1295.44,322.847 1293.5,325C 1288.3,327.435 1283.64,326.769 1279.5,323C 1279.95,321.378 1280.95,320.212 1282.5,319.5C 1284.71,321.31 1287.04,321.643 1289.5,320.5C 1287,319.036 1284.33,317.869 1281.5,317C 1278.74,313.107 1279.41,309.94 1283.5,307.5 Z"/></g>
<g><path style="opacity:0.575" fill="#e7e6eb" d="M 1303.5,307.5 C 1307.87,306.923 1311.87,307.757 1315.5,310C 1313.85,314.128 1311.35,314.628 1308,311.5C 1306.94,311.63 1306.11,312.13 1305.5,313C 1312.68,313.165 1315.84,316.665 1315,323.5C 1311.74,326.428 1307.91,327.262 1303.5,326C 1298.84,324.249 1298.51,322.082 1302.5,319.5C 1304.71,321.31 1307.04,321.643 1309.5,320.5C 1306.72,319.093 1303.89,317.76 1301,316.5C 1299.27,312.845 1300.11,309.845 1303.5,307.5 Z"/></g>
<g><path style="opacity:0.008" fill="#10096b" d="M 1249.5,308.5 C 1249.81,311.247 1249.48,313.914 1248.5,316.5C 1247.89,316.376 1247.56,316.043 1247.5,315.5C 1248.17,313.167 1248.83,310.833 1249.5,308.5 Z"/></g>
<g><path style="opacity:0.004" fill="#0b0916" d="M 1166.5,311.5 C 1167.18,313.176 1168.52,313.843 1170.5,313.5C 1169.08,314.451 1167.41,314.784 1165.5,314.5C 1165.26,313.209 1165.6,312.209 1166.5,311.5 Z"/></g>
</svg>
